<?xml version="1.0" encoding="UTF-8"?>
<svg width="32" height="32" viewBox="0 0 32 32" fill="none" xmlns="http://www.w3.org/2000/svg">
  <!-- PCB Board -->
  <rect x="2" y="2" width="28" height="28" rx="2" fill="#1a7431"/>
  
  <!-- USB-C Port -->
  <rect x="2" y="12" width="4" height="8" fill="#666666"/>
  <rect x="2.5" y="13" width="3" height="6" fill="#333333"/>
  
  <!-- Main MCU -->
  <rect x="10" y="8" width="12" height="12" fill="#1a1a1a"/>
  <rect x="11" y="9" width="10" height="10" fill="#2a2a2a"/>
  <!-- MCU Pins -->
  <rect x="10.5" y="9" width="0.5" height="0.5" fill="gold"/>
  <rect x="12" y="9" width="0.5" height="0.5" fill="gold"/>
  <rect x="13.5" y="9" width="0.5" height="0.5" fill="gold"/>
  <rect x="15" y="9" width="0.5" height="0.5" fill="gold"/>
  <rect x="16.5" y="9" width="0.5" height="0.5" fill="gold"/>
  <rect x="18" y="9" width="0.5" height="0.5" fill="gold"/>
  
  <!-- Crystal -->
  <rect x="24" y="9" width="3" height="6" fill="#c0c0c0"/>
  <rect x="24.5" y="9.5" width="2" height="5" fill="#e0e0e0"/>
  
  <!-- LEDs -->
  <circle cx="8" cy="22" r="0.8" fill="#cc0000"/>
  <circle cx="10.5" cy="22" r="0.8" fill="#00cc00"/>
  
  <!-- Headers -->
  <rect x="19" y="22" width="8" height="3" fill="#1a1a1a"/>
  <!-- Header Pins -->
  <rect x="19.5" y="22.5" width="0.8" height="2" fill="gold"/>
  <rect x="21" y="22.5" width="0.8" height="2" fill="gold"/>
  <rect x="22.5" y="22.5" width="0.8" height="2" fill="gold"/>
  <rect x="24" y="22.5" width="0.8" height="2" fill="gold"/>
  <rect x="25.5" y="22.5" width="0.8" height="2" fill="gold"/>
  
  <!-- Reset Button -->
  <circle cx="26" cy="6" r="1.5" fill="#f0f0f0"/>
  <circle cx="26" cy="6" r="1.2" fill="#e0e0e0"/>
  
  <!-- Surface Mount Components -->
  <rect x="8" y="18" width="1.5" height="0.8" fill="#8b4513"/>
  <rect x="10.5" y="18" width="1.5" height="0.8" fill="#8b4513"/>
  <rect x="13" y="18" width="1.5" height="0.8" fill="#8b4513"/>
  
  <!-- Silkscreen Text -->
  <text x="11" y="15" font-family="monospace" font-size="2" fill="#ffffff">MCU</text>
</svg>
